<?xml version="1.0" encoding="UTF-8" standalone="no"?>
<svg width="128px" height="20px" viewBox="0 0 128 20" version="1.1" xmlns="http://www.w3.org/2000/svg" xmlns:xlink="http://www.w3.org/1999/xlink">
    <!-- Generator: Sketch 3.8.3 (29802) - http://www.bohemiancoding.com/sketch -->
    <title>marketdial-logo</title>
    <desc>Created with Sketch.</desc>
    <defs>
        <polygon id="path-1" points="0 18.4852375 127.619258 18.4852375 127.619258 0.449653402 0 0.449653402"></polygon>
    </defs>
    <g id="Symbols" stroke="none" stroke-width="1" fill="none" fill-rule="evenodd">
        <g id="marketdial-logo">
            <g id="Logo">
                <polygon id="Fill-1" fill="#3676BC" points="38.8391098 5.79285751 34.1799098 12.2266444 33.7098007 12.2266444 29.1073862 5.79285751 29.1073862 16.2305469 26.9155607 16.2305469 26.9155607 2.62310141 29.4611316 2.62310141 33.9844189 9.00050834 38.4881571 2.62310141 41.0318662 2.62310141 41.0318662 16.2305469 38.8391098 16.2305469"></polygon>
                <g id="Group-20" transform="translate(0.000000, 0.012616)">
                    <path d="M46.2145629,9.0945982 C45.614592,9.66948909 45.3143738,10.4393992 45.3143738,11.3978588 C45.3143738,12.3581669 45.614592,13.1285392 46.2145629,13.7112863 C46.8154647,14.2944955 47.560192,14.5851759 48.4473484,14.5851759 C49.0226502,14.5851759 49.5346502,14.4696431 49.9847447,14.2348806 C50.4343738,14.0028909 50.7746211,13.6988087 51.0026938,13.322172 C51.2316975,12.9450732 51.4011229,12.5342388 51.5119011,12.0878203 C51.6236102,11.6400154 51.6236102,11.190362 51.5119011,10.7365494 C51.4011229,10.2822747 51.2316975,9.86912965 51.0026938,9.49249294 C50.7746211,9.11631836 50.4343738,8.8122362 49.9847447,8.57747368 C49.5346502,8.34548395 49.0226502,8.22902696 48.4473484,8.22902696 C47.560192,8.22902696 46.8154647,8.51693453 46.2145629,9.0945982 L46.2145629,9.0945982 Z M51.6389702,6.61526573 L53.5962065,6.61526573 L53.5962065,16.1998614 L51.6780684,16.1998614 L51.5807884,14.6447908 C51.2801047,15.2270757 50.8137193,15.6734942 50.1802356,15.9849705 C49.5472175,16.2955225 48.9044247,16.452647 48.2509265,16.452647 C46.8019665,16.4651245 45.614592,16.0237895 44.6883375,15.1304904 C43.761152,14.2348806 43.2980247,12.9912863 43.2980247,11.3978588 C43.2980247,9.84186393 43.7709265,8.62091399 44.7181265,7.73269833 C45.6625338,6.84540693 46.8554938,6.4012991 48.2900247,6.4012991 C48.983552,6.4012991 49.6291375,6.55565083 50.2300393,6.86805135 C50.8300102,7.17906547 51.2801047,7.60099101 51.5807884,8.13151733 L51.6389702,6.61526573 L51.6389702,6.61526573 Z" id="Fill-2" fill="#3676BC"></path>
                    <path d="M58.2127244,6.6151733 L58.3509644,7.87771502 C58.9118371,6.89337612 59.8571753,6.40120668 61.1893062,6.40120668 C62.1681571,6.40120668 62.9645498,6.67478819 63.5780189,7.21825417 L62.6573498,8.96741977 C62.1756044,8.57738126 61.6072844,8.38421053 60.9547171,8.38421053 C60.2099898,8.38421053 59.5900044,8.61157895 59.0938298,9.0649294 C58.5981207,9.51874198 58.3509644,10.1661874 58.3509644,11.0091142 L58.3509644,16.1997689 L56.3327535,16.1997689 L56.3327535,6.6151733 L58.2127244,6.6151733 Z" id="Fill-4" fill="#3676BC"></path>
                    <polygon id="Fill-6" fill="#3676BC" points="66.9827258 2.61030039 66.9827258 10.5423158 70.5653295 6.61512709 73.0126895 6.61512709 73.0126895 6.73158408 68.8426822 11.125525 73.5810095 16.0624698 73.5810095 16.1997227 71.1136349 16.1997227 66.9827258 11.7669628 66.9827258 16.1997227 64.9463622 16.1997227 64.9463622 2.61030039"></polygon>
                    <path d="M81.8200204,10.464724 C81.7683549,9.72531451 81.4844276,9.15596919 80.9682385,8.75252888 C80.4525149,8.35001284 79.7836567,8.1522208 78.9625949,8.1522208 C78.2034385,8.1522208 77.5555258,8.35001284 77.0137367,8.75252888 C76.4719476,9.15596919 76.1228567,9.72531451 75.9655331,10.464724 L81.8200204,10.464724 Z M75.925504,12.1561232 C76.0181295,12.8812067 76.3481367,13.4639538 76.9155258,13.9043646 C77.4829149,14.3456996 78.2034385,14.5652118 79.0789585,14.5652118 C79.6007331,14.5652118 80.1271622,14.474172 80.6554531,14.2856226 C81.183744,14.096611 81.5919476,13.8475225 81.8791331,13.5360462 L83.190784,14.7990501 C82.7071767,15.3180231 82.0909149,15.7205392 81.3401367,16.0038254 C80.589824,16.2898845 79.8227549,16.4317587 79.0389295,16.4317587 C77.4610385,16.4317587 76.1982604,15.9724005 75.2519913,15.0527599 C74.3047913,14.1321951 73.8318895,12.9006162 73.8318895,11.3584852 C73.8318895,9.89537869 74.3010676,8.69568678 75.2417513,7.76125802 C76.1810385,6.82913992 77.4009949,6.36146341 78.9025513,6.36146341 C80.5218676,6.36146341 81.7809222,6.85501926 82.6811113,7.83982028 C83.5817658,8.82462131 83.9410967,10.2632349 83.759104,12.1561232 L75.925504,12.1561232 Z" id="Fill-8" fill="#3676BC"></path>
                    <path d="M88.923648,3.85407959 L88.923648,6.63518357 L91.7438371,6.63518357 L91.7438371,8.3654018 L88.9045644,8.3654018 L88.9045644,12.933104 C88.9045644,13.9821412 89.3681571,14.5085083 90.2953425,14.5085083 C90.6728262,14.5085083 91.0856844,14.3971348 91.5292625,14.179009 L92.1152698,15.8884313 C91.4617716,16.1735661 90.8171171,16.3154403 90.1771171,16.3154403 C89.1191389,16.3413196 88.3073862,16.067276 87.7390662,15.4896123 C87.1716771,14.9119487 86.8882153,14.0597792 86.8882153,12.933104 L86.8882153,8.3654018 L85.027328,8.3654018 L85.027328,6.63518357 L86.8882153,6.63518357 L86.8882153,4.06712195 L88.923648,3.85407959 Z" id="Fill-10" fill="#3676BC"></path>
                    <path d="M96.3027316,14.1013248 L99.3174807,14.1013248 C100.884666,14.1013248 102.065524,13.6230193 102.861917,12.6705674 C103.657379,11.7167291 104.042775,10.5821977 104.017175,9.25865469 C103.992041,8.45639538 103.820753,7.71652375 103.507968,7.04319897 C103.195648,6.36802567 102.676201,5.80561232 101.951953,5.35133761 C101.227241,4.89844929 100.348928,4.67108087 99.3174807,4.67108087 L96.3027316,4.67108087 L96.3027316,14.1013248 Z M99.3174807,2.58964313 C100.441088,2.58964313 101.449263,2.77819255 102.342935,3.15482927 C103.237073,3.53100385 103.95527,4.04073427 104.496593,4.67986136 C105.038383,5.32268549 105.453568,6.03298074 105.740753,6.80936072 C106.028404,7.58805135 106.178281,8.40972015 106.189917,9.27760205 C106.217379,10.1607343 106.092637,11.0055096 105.818019,11.815163 C105.544332,12.6248164 105.136593,13.360991 104.594339,14.020914 C104.05255,14.6826855 103.324579,15.210439 102.411823,15.6050988 C101.498135,16.0020693 100.467153,16.1998614 99.3174807,16.1998614 L94.1299898,16.1998614 L94.1299898,2.58964313 L99.3174807,2.58964313 Z" id="Fill-12" fill="#00B9F1"></path>
                    <mask id="mask-2" fill="white">
                        <use xlink:href="#path-1"></use>
                    </mask>
                    <g id="Clip-15"></g>
                    <path d="M108.319185,16.2 L110.337396,16.2 L110.337396,6.57750963 L108.319185,6.57750963 L108.319185,16.2 Z M108.711098,2.70854942 C109.130007,2.49920411 109.545658,2.49920411 109.963636,2.70854942 C110.381615,2.91465982 110.592,3.27835687 110.592,3.79732991 C110.592,4.31537869 110.381615,4.68 109.963636,4.89396662 C109.545658,5.10793325 109.130007,5.10793325 108.711098,4.89396662 C108.293585,4.68 108.085527,4.31537869 108.085527,3.79732991 C108.085527,3.27835687 108.293585,2.91465982 108.711098,2.70854942 L108.711098,2.70854942 Z" id="Fill-14" fill="#00B9F1" mask="url(#mask-2)"></path>
                    <path d="M115.406383,9.0945982 C114.805481,9.66948909 114.506193,10.4393992 114.506193,11.3978588 C114.506193,12.3581669 114.805481,13.1285392 115.406383,13.7112863 C116.007284,14.2944955 116.751081,14.5851759 117.639168,14.5851759 C118.213539,14.5851759 118.72647,14.4696431 119.175633,14.2348806 C119.626193,14.0028909 119.96551,13.6988087 120.193583,13.322172 C120.421655,12.9450732 120.592943,12.5342388 120.70279,12.0878203 C120.813568,11.6400154 120.813568,11.190362 120.70279,10.7365494 C120.592943,10.2822747 120.421655,9.86912965 120.193583,9.49249294 C119.96551,9.11631836 119.626193,8.8122362 119.175633,8.57747368 C118.72647,8.34548395 118.213539,8.22902696 117.639168,8.22902696 C116.751081,8.22902696 116.007284,8.51693453 115.406383,9.0945982 L115.406383,9.0945982 Z M120.829859,6.61526573 L122.788026,6.61526573 L122.788026,16.1998614 L120.869888,16.1998614 L120.771677,14.6447908 C120.471924,15.2270757 120.005539,15.6734942 119.371124,15.9849705 C118.738106,16.2955225 118.095313,16.452647 117.443677,16.452647 C115.994717,16.4651245 114.805481,16.0237895 113.880157,15.1304904 C112.952972,14.2348806 112.488913,12.9912863 112.488913,11.3978588 C112.488913,9.84186393 112.962746,8.62091399 113.908084,7.73269833 C114.855284,6.84540693 116.046383,6.4012991 117.481844,6.4012991 C118.17351,6.4012991 118.820026,6.55565083 119.420928,6.86805135 C120.02183,7.17906547 120.471924,7.60099101 120.771677,8.13151733 L120.829859,6.61526573 Z" id="Fill-16" fill="#00B9F1" mask="url(#mask-2)"></path>
                    <polygon id="Fill-17" fill="#00B9F1" mask="url(#mask-2)" points="125.602909 16.2 127.619258 16.2 127.619258 2.61057766 125.602909 2.61057766"></polygon>
                    <path d="M18.1645498,12.7022696 L18.1645498,1.68321951 C18.1645498,1.00203851 17.6083316,0.44932991 16.9227171,0.44932991 C16.5838662,0.44932991 16.2780625,0.583810013 16.0537135,0.801473684 L16.0518516,0.800549422 L9.08166982,7.72096021 L2.11288436,0.800549422 L2.11102255,0.801473684 C1.886208,0.583810013 1.57993891,0.44932991 1.24201891,0.44932991 C0.556404364,0.44932991 0.000186181818,1.00203851 0.000186181818,1.68321951 L0.000186181818,12.7022696 L0.000186181818,17.2431682 L0.000186181818,17.2514865 C0.000186181818,17.3291245 0.00809890909,17.4039897 0.0211316364,17.4770064 C0.0215970909,17.4788549 0.0215970909,17.4816277 0.022528,17.482552 C0.0374225455,17.5592657 0.0592989091,17.6332067 0.0872261818,17.7043748 C0.089088,17.7080719 0.0900189091,17.7117689 0.0918807273,17.7163902 C0.120738909,17.7875584 0.157044364,17.8559538 0.198935273,17.9192657 C0.201728,17.9248113 0.203589818,17.9285083 0.206382545,17.9326675 C0.252928,18.001525 0.304593455,18.0652991 0.363706182,18.1230655 C0.363706182,18.1230655 0.363706182,18.1239897 0.364637091,18.1239897 C0.372549818,18.1332323 0.381858909,18.1406264 0.390702545,18.1484827 C0.411648,18.1683543 0.432593455,18.1882259 0.455400727,18.206249 C0.472622545,18.2196508 0.489844364,18.2316662 0.507997091,18.245068 C0.523822545,18.2570834 0.539182545,18.2677125 0.555473455,18.2792657 C0.574557091,18.2922054 0.593640727,18.3028344 0.612724364,18.3148498 C0.629015273,18.3236303 0.646237091,18.3337972 0.662528,18.3425777 L0.719778909,18.3698434 C0.738862545,18.3776996 0.758411636,18.3869422 0.777495273,18.3947985 C0.794717091,18.4021926 0.812869818,18.4077381 0.831022545,18.4137458 C0.852898909,18.4220642 0.874775273,18.4294583 0.896186182,18.435466 C0.913408,18.4400873 0.930164364,18.4447086 0.947386182,18.4484056 C0.971124364,18.4544134 0.994397091,18.4599589 1.01906618,18.4645802 C1.03535709,18.467353 1.05257891,18.4692015 1.06980073,18.4715122 C1.092608,18.4752092 1.11727709,18.477982 1.14101527,18.4798306 C1.16009891,18.4816791 1.17918255,18.4826033 1.19826618,18.4826033 C1.21269527,18.4835276 1.22712436,18.4853761 1.24201891,18.4853761 L9.08166982,18.4844519 L16.9227171,18.4853761 C16.9371462,18.4853761 16.9520407,18.4835276 16.9664698,18.4826033 C16.9855535,18.4826033 17.0046371,18.4816791 17.0237207,18.4798306 C17.0474589,18.477982 17.0707316,18.4752092 17.0944698,18.4715122 C17.1116916,18.4692015 17.1289135,18.467353 17.1456698,18.4645802 C17.1698735,18.4599589 17.1936116,18.4544134 17.2173498,18.4484056 C17.2345716,18.4447086 17.2508625,18.4400873 17.2680844,18.435466 C17.2899607,18.4294583 17.3118371,18.4220642 17.3337135,18.4137458 C17.3518662,18.4077381 17.3700189,18.4021926 17.3872407,18.3947985 C17.4063244,18.3869422 17.425408,18.3776996 17.4444916,18.3698434 C17.4635753,18.3606008 17.4826589,18.3518203 17.5008116,18.3425777 C17.5180335,18.3337972 17.5343244,18.3236303 17.5520116,18.3148498 C17.5710953,18.3028344 17.5901789,18.2922054 17.6092625,18.2792657 C17.6255535,18.2677125 17.6409135,18.2570834 17.6562735,18.245068 C17.6744262,18.2316662 17.691648,18.2196508 17.7088698,18.206249 C17.7307462,18.1882259 17.7516916,18.1683543 17.773568,18.1484827 C17.7828771,18.1406264 17.7917207,18.1332323 17.8000989,18.1239897 C17.8010298,18.1239897 17.8010298,18.1230655 17.8010298,18.1230655 C17.8601425,18.0652991 17.911808,18.001525 17.9583535,17.9326675 C17.9611462,17.9285083 17.9625425,17.9248113 17.9653353,17.9192657 C18.0072262,17.8559538 18.0435316,17.7875584 18.0728553,17.7163902 C18.0747171,17.7117689 18.075648,17.7080719 18.0775098,17.7043748 C18.1054371,17.6332067 18.1273135,17.5592657 18.1417425,17.482552 C18.1426735,17.4816277 18.1426735,17.4788549 18.1426735,17.4770064 C18.1561716,17.4039897 18.1645498,17.3291245 18.1645498,17.2514865 L18.1645498,17.2431682 L18.1645498,12.7022696 Z" id="Fill-18" fill="#00B9F1" mask="url(#mask-2)"></path>
                    <path d="M14.5081716,13.1102388 L14.5091025,13.1083902 L9.96161164,8.59383312 L9.08190255,7.72086778 L8.20265891,8.59383312 L3.65097891,13.1130116 L3.65190982,13.1148601 C3.43454255,13.3357587 3.30002618,13.6366059 3.29723345,13.9693402 L3.29816436,13.9693402 C3.29723345,14.0479024 3.30468073,14.1255404 3.31910982,14.2031784 C3.31910982,14.205027 3.31910982,14.2068755 3.32004073,14.208724 C3.33446982,14.2835892 3.35634618,14.3575302 3.38473891,14.4296226 C3.38613527,14.4333196 3.38706618,14.4379409 3.388928,14.441638 C3.41825164,14.5118819 3.45455709,14.5798151 3.496448,14.6454377 C3.49924073,14.6500591 3.50203345,14.6546804 3.50436073,14.6583774 C3.54904436,14.7258485 3.60070982,14.7900847 3.66075345,14.8487754 C3.67006255,14.8575558 3.67983709,14.8658742 3.68914618,14.8737304 C3.71009164,14.8936021 3.731968,14.9134737 3.75384436,14.9314968 C3.77013527,14.946285 3.788288,14.9578383 3.80550982,14.9703158 C3.82180073,14.9823312 3.83716073,14.9948087 3.85345164,15.0049756 C3.87160436,15.0174531 3.890688,15.0280822 3.91070255,15.0391733 C3.92745891,15.048878 3.94374982,15.0599692 3.96097164,15.0678254 C3.97912436,15.0779923 3.998208,15.0867728 4.01729164,15.0960154 C4.03637527,15.1038716 4.05545891,15.1131142 4.07454255,15.1205083 C4.09269527,15.1283646 4.110848,15.1339101 4.12806982,15.14038 C4.14994618,15.1473119 4.17275345,15.1556303 4.19462982,15.161638 C4.21092073,15.1662593 4.22814255,15.1699564 4.24443345,15.1745777 C4.26817164,15.1801232 4.29284073,15.1852067 4.31657891,15.189828 C4.33380073,15.193525 4.35009164,15.1953736 4.36731345,15.1981463 C4.39105164,15.200457 4.41432436,15.204154 4.43899345,15.2050783 C4.45807709,15.2069268 4.47716073,15.2078511 4.49624436,15.2087754 C4.525568,15.2096996 4.55442618,15.2106239 4.58374982,15.2106239 L13.5763316,15.2050783 C13.6056553,15.2069268 13.6345135,15.2050783 13.6638371,15.204154 C13.6829207,15.2032298 13.7020044,15.2032298 13.721088,15.2013813 C13.7443607,15.1995327 13.7690298,15.1962978 13.792768,15.193525 C13.8099898,15.1907522 13.8262807,15.1879795 13.8435025,15.1852067 C13.8672407,15.1805854 13.8919098,15.1755019 13.915648,15.1699564 C13.9319389,15.165335 13.9491607,15.161638 13.9654516,15.1565546 C13.987328,15.151009 14.0101353,15.1426906 14.0320116,15.1357587 C14.0492335,15.1292888 14.0673862,15.122819 14.084608,15.115887 C14.1036916,15.1084929 14.1237062,15.0997125 14.1427898,15.0904698 C14.1609425,15.0816893 14.1809571,15.073371 14.1991098,15.0636662 C14.2163316,15.0544236 14.2326225,15.0447189 14.2489135,15.0354763 C14.2679971,15.023923 14.2880116,15.0128318 14.3061644,15.0012786 C14.3229207,14.9892632 14.3382807,14.9777099 14.3545716,14.9661566 C14.3717935,14.9532169 14.3899462,14.9407394 14.4062371,14.9273376 C14.4281135,14.9093145 14.4499898,14.8894429 14.4709353,14.8695712 C14.4797789,14.8612529 14.4900189,14.8529345 14.4988625,14.8450783 C14.5589062,14.7854634 14.6110371,14.7212272 14.6552553,14.6537561 C14.658048,14.6500591 14.6608407,14.6454377 14.6627025,14.6412786 C14.7055244,14.5761181 14.7418298,14.5072606 14.770688,14.4370167 C14.7716189,14.4333196 14.7734807,14.4296226 14.7753425,14.4254634 C14.8037353,14.3529089 14.8256116,14.2789679 14.8400407,14.2041027 C14.8400407,14.2022542 14.8409716,14.2004056 14.8409716,14.1985571 C14.8554007,14.1213813 14.862848,14.042819 14.8619171,13.965181 C14.8600553,13.6319846 14.7255389,13.3306752 14.5081716,13.1102388" id="Fill-19" fill="#3676BC" mask="url(#mask-2)"></path>
                </g>
            </g>
        </g>
    </g>
</svg>